# xmcd CD database file
#
# Track frame offsets:
#	150
#	21811
#	41761
#	68311
#	95239
#	111439
#	129965
#	150653
#	174578
#	190028
#	220403
#	242416
#	265886
#	288464
#	304886
#	321232
#	338557
#
# Disc length: 4758 seconds
#
# Revision: 2
# Processed by: cddbd v1.5.2PL0 Copyright (c) Steve Scherf et al.
# Submitted via: CDex 1.51
#
DISCID=f1129411
DTITLE=George Michael - XTA-98
DYEAR=1900
DGENRE=Blues
TTITLE0=George Michael/Kissing A Fool
TTITLE1=George Michael/Careless Whisper
TTITLE2=George Michael and Elton John/Don't Let The Sun Go Down On Me
TTITLE3=George Michael/Father Figure
TTITLE4=George Michael and Aretha Franklin/I Knew You Were Waiting
TTITLE5=Wham/Wake Me Up Before You Go Go
TTITLE6=George Michael/Amazing
TTITLE7=George Michael/Everything She Wants
TTITLE8=George Michael/Faith
TTITLE9=George Michael/Freedom 90 (remix)
TTITLE10=George Michael/I Want Your Sex
TTITLE11=George Michael/Monkey
TTITLE12=George Michael/Outside (remix)
TTITLE13=George Michael/Star People
TTITLE14=George Michael/Too Funky
TTITLE15=Wham/I'm Your Man
TTITLE16=George Michael/A Different Corner
EXTD=
EXTT0=
EXTT1=
EXTT2=
EXTT3=
EXTT4=
EXTT5=
EXTT6=
EXTT7=
EXTT8=
EXTT9=
EXTT10=
EXTT11=
EXTT12=
EXTT13=
EXTT14=
EXTT15=
EXTT16=
PLAYORDER=
